<mxfile host="app.diagrams.net" modified="2022-12-23T13:35:14.727Z" agent="5.0 (Windows NT 10.0; Win64; x64) AppleWebKit/537.36 (KHTML, like Gecko) Chrome/108.0.0.0 Safari/537.36" etag="F09xw7t-IaerulN3-ISQ" version="20.7.4" type="github">
  <diagram id="76fyZNjRoqBfqyPPSOuL" name="Страница 1">
    <mxGraphModel dx="2261" dy="764" grid="1" gridSize="10" guides="1" tooltips="1" connect="1" arrows="1" fold="1" page="1" pageScale="1" pageWidth="827" pageHeight="1169" math="0" shadow="0">
      <root>
        <mxCell id="0" />
        <mxCell id="1" parent="0" />
        <mxCell id="REPhJKkpd32fTbcY40Kk-1" value="&lt;font style=&quot;vertical-align: inherit;&quot;&gt;&lt;font style=&quot;vertical-align: inherit;&quot;&gt;Незарегистрированный&lt;br&gt;&amp;nbsp;пользователь&lt;/font&gt;&lt;/font&gt;" style="shape=umlActor;verticalLabelPosition=bottom;verticalAlign=top;html=1;outlineConnect=0;" parent="1" vertex="1">
          <mxGeometry x="40" y="120" width="40" height="80" as="geometry" />
        </mxCell>
        <mxCell id="REPhJKkpd32fTbcY40Kk-2" value="&lt;font style=&quot;vertical-align: inherit;&quot;&gt;&lt;font style=&quot;vertical-align: inherit;&quot;&gt;Авторизованный&amp;nbsp;&lt;br&gt;пользователь&lt;br&gt;&lt;/font&gt;&lt;/font&gt;" style="shape=umlActor;verticalLabelPosition=bottom;verticalAlign=top;html=1;outlineConnect=0;" parent="1" vertex="1">
          <mxGeometry x="20" y="490" width="40" height="85" as="geometry" />
        </mxCell>
        <mxCell id="REPhJKkpd32fTbcY40Kk-3" value="" style="whiteSpace=wrap;html=1;aspect=fixed;" parent="1" vertex="1">
          <mxGeometry x="120" y="40" width="680" height="680" as="geometry" />
        </mxCell>
        <mxCell id="REPhJKkpd32fTbcY40Kk-5" value="&lt;font style=&quot;vertical-align: inherit;&quot;&gt;&lt;font style=&quot;vertical-align: inherit;&quot;&gt;Регистрация&lt;/font&gt;&lt;/font&gt;" style="ellipse;whiteSpace=wrap;html=1;" parent="1" vertex="1">
          <mxGeometry x="200" y="135" width="80" height="50" as="geometry" />
        </mxCell>
        <mxCell id="REPhJKkpd32fTbcY40Kk-6" value="&lt;font style=&quot;vertical-align: inherit;&quot;&gt;&lt;font style=&quot;vertical-align: inherit;&quot;&gt;Привязка&amp;nbsp;&lt;br&gt;банковской карты&lt;br&gt;&lt;/font&gt;&lt;/font&gt;" style="ellipse;whiteSpace=wrap;html=1;" parent="1" vertex="1">
          <mxGeometry x="480" y="70" width="90" height="60" as="geometry" />
        </mxCell>
        <mxCell id="REPhJKkpd32fTbcY40Kk-7" value="&lt;font style=&quot;vertical-align: inherit;&quot;&gt;&lt;font style=&quot;vertical-align: inherit;&quot;&gt;Авторизация&lt;/font&gt;&lt;/font&gt;" style="ellipse;whiteSpace=wrap;html=1;" parent="1" vertex="1">
          <mxGeometry x="470" y="190" width="115" height="60" as="geometry" />
        </mxCell>
        <mxCell id="REPhJKkpd32fTbcY40Kk-8" value="" style="endArrow=none;html=1;rounded=0;" parent="1" source="REPhJKkpd32fTbcY40Kk-1" target="REPhJKkpd32fTbcY40Kk-5" edge="1">
          <mxGeometry width="50" height="50" relative="1" as="geometry">
            <mxPoint x="390" y="360" as="sourcePoint" />
            <mxPoint x="170" y="160" as="targetPoint" />
          </mxGeometry>
        </mxCell>
        <mxCell id="REPhJKkpd32fTbcY40Kk-23" value="&lt;font style=&quot;vertical-align: inherit;&quot;&gt;&lt;font style=&quot;vertical-align: inherit;&quot;&gt;Ввод&amp;nbsp;&lt;br&gt;показаний счетчика&lt;br&gt;&lt;/font&gt;&lt;/font&gt;" style="ellipse;whiteSpace=wrap;html=1;" parent="1" vertex="1">
          <mxGeometry x="150" y="460" width="100" height="60" as="geometry" />
        </mxCell>
        <mxCell id="REPhJKkpd32fTbcY40Kk-24" value="&lt;font style=&quot;vertical-align: inherit;&quot;&gt;&lt;font style=&quot;vertical-align: inherit;&quot;&gt;Оплата услуг&lt;/font&gt;&lt;/font&gt;" style="ellipse;whiteSpace=wrap;html=1;" parent="1" vertex="1">
          <mxGeometry x="310" y="360" width="95" height="60" as="geometry" />
        </mxCell>
        <mxCell id="REPhJKkpd32fTbcY40Kk-25" value="&lt;font style=&quot;vertical-align: inherit;&quot;&gt;&lt;font style=&quot;vertical-align: inherit;&quot;&gt;Ввод данный банковской карты&lt;/font&gt;&lt;/font&gt;" style="ellipse;whiteSpace=wrap;html=1;" parent="1" vertex="1">
          <mxGeometry x="307.5" y="570" width="100" height="60" as="geometry" />
        </mxCell>
        <mxCell id="REPhJKkpd32fTbcY40Kk-26" value="&lt;font style=&quot;vertical-align: inherit;&quot;&gt;&lt;font style=&quot;vertical-align: inherit;&quot;&gt;Запрос отсчета&lt;br&gt;&amp;nbsp;об оплате&lt;/font&gt;&lt;/font&gt;" style="ellipse;whiteSpace=wrap;html=1;" parent="1" vertex="1">
          <mxGeometry x="540" y="350" width="100" height="70" as="geometry" />
        </mxCell>
        <mxCell id="REPhJKkpd32fTbcY40Kk-27" value="&lt;font style=&quot;vertical-align: inherit;&quot;&gt;&lt;font style=&quot;vertical-align: inherit;&quot;&gt;Подтверждение&amp;nbsp;&lt;br&gt;оплаты&lt;br&gt;&lt;/font&gt;&lt;/font&gt;" style="ellipse;whiteSpace=wrap;html=1;" parent="1" vertex="1">
          <mxGeometry x="485" y="550" width="100" height="70" as="geometry" />
        </mxCell>
        <mxCell id="REPhJKkpd32fTbcY40Kk-28" value="&lt;font style=&quot;vertical-align: inherit;&quot;&gt;&lt;font style=&quot;vertical-align: inherit;&quot;&gt;Формирование&amp;nbsp;&lt;br&gt;квитанции&lt;br&gt;&lt;/font&gt;&lt;/font&gt;" style="ellipse;whiteSpace=wrap;html=1;" parent="1" vertex="1">
          <mxGeometry x="630" y="487.5" width="100" height="65" as="geometry" />
        </mxCell>
        <mxCell id="REPhJKkpd32fTbcY40Kk-29" value="&lt;font style=&quot;vertical-align: inherit;&quot;&gt;&lt;font style=&quot;vertical-align: inherit;&quot;&gt;Скачать квитанцию&lt;/font&gt;&lt;/font&gt;" style="ellipse;whiteSpace=wrap;html=1;" parent="1" vertex="1">
          <mxGeometry x="630" y="630" width="100" height="70" as="geometry" />
        </mxCell>
        <mxCell id="REPhJKkpd32fTbcY40Kk-31" value="" style="endArrow=none;html=1;rounded=0;exitX=0.5;exitY=0.5;exitDx=0;exitDy=0;exitPerimeter=0;" parent="1" source="REPhJKkpd32fTbcY40Kk-2" target="REPhJKkpd32fTbcY40Kk-23" edge="1">
          <mxGeometry width="50" height="50" relative="1" as="geometry">
            <mxPoint x="390" y="550" as="sourcePoint" />
            <mxPoint x="440" y="500" as="targetPoint" />
          </mxGeometry>
        </mxCell>
        <mxCell id="REPhJKkpd32fTbcY40Kk-50" value="&lt;font style=&quot;vertical-align: inherit;&quot;&gt;&lt;font style=&quot;vertical-align: inherit;&quot;&gt;Если карта не привязана&lt;/font&gt;&lt;/font&gt;" style="whiteSpace=wrap;html=1;aspect=fixed;" parent="1" vertex="1">
          <mxGeometry x="260" y="490" width="60" height="60" as="geometry" />
        </mxCell>
        <mxCell id="REPhJKkpd32fTbcY40Kk-51" value="" style="endArrow=none;html=1;rounded=0;exitX=1;exitY=0.5;exitDx=0;exitDy=0;" parent="1" source="REPhJKkpd32fTbcY40Kk-50" edge="1">
          <mxGeometry width="50" height="50" relative="1" as="geometry">
            <mxPoint x="390" y="430" as="sourcePoint" />
            <mxPoint x="360" y="570" as="targetPoint" />
          </mxGeometry>
        </mxCell>
        <mxCell id="REPhJKkpd32fTbcY40Kk-52" value="&lt;font style=&quot;vertical-align: inherit;&quot;&gt;&lt;font style=&quot;vertical-align: inherit;&quot;&gt;Указать период&lt;br&gt;лицевого счета&lt;br&gt;&lt;/font&gt;&lt;/font&gt;" style="whiteSpace=wrap;html=1;aspect=fixed;" parent="1" vertex="1">
          <mxGeometry x="460" y="420" width="60" height="60" as="geometry" />
        </mxCell>
        <mxCell id="REPhJKkpd32fTbcY40Kk-53" value="" style="endArrow=none;html=1;rounded=0;exitX=0.5;exitY=0;exitDx=0;exitDy=0;entryX=0;entryY=0.5;entryDx=0;entryDy=0;" parent="1" source="REPhJKkpd32fTbcY40Kk-52" target="REPhJKkpd32fTbcY40Kk-26" edge="1">
          <mxGeometry width="50" height="50" relative="1" as="geometry">
            <mxPoint x="390" y="400" as="sourcePoint" />
            <mxPoint x="410" y="390" as="targetPoint" />
          </mxGeometry>
        </mxCell>
        <mxCell id="zlEkXUk78U7Huj_eDU_d-2" value="&amp;lt;&amp;lt;extend&amp;gt;&amp;gt;" style="html=1;verticalAlign=bottom;labelBackgroundColor=none;endArrow=open;endFill=0;dashed=1;rounded=0;" parent="1" source="REPhJKkpd32fTbcY40Kk-6" target="REPhJKkpd32fTbcY40Kk-5" edge="1">
          <mxGeometry width="160" relative="1" as="geometry">
            <mxPoint x="390" y="370" as="sourcePoint" />
            <mxPoint x="550" y="370" as="targetPoint" />
          </mxGeometry>
        </mxCell>
        <mxCell id="zlEkXUk78U7Huj_eDU_d-3" value="&amp;lt;&amp;lt;include&amp;gt;&amp;gt;" style="html=1;verticalAlign=bottom;labelBackgroundColor=none;endArrow=open;endFill=0;dashed=1;rounded=0;" parent="1" source="REPhJKkpd32fTbcY40Kk-5" target="REPhJKkpd32fTbcY40Kk-7" edge="1">
          <mxGeometry width="160" relative="1" as="geometry">
            <mxPoint x="270" y="170" as="sourcePoint" />
            <mxPoint x="330" y="170" as="targetPoint" />
          </mxGeometry>
        </mxCell>
        <mxCell id="zlEkXUk78U7Huj_eDU_d-5" value="&lt;font style=&quot;font-size: 13px;&quot;&gt;&lt;b&gt;Приложение &quot;Петроэлектросбыт&quot;&lt;/b&gt;&lt;/font&gt;" style="text;html=1;strokeColor=none;fillColor=none;align=center;verticalAlign=middle;whiteSpace=wrap;rounded=0;" parent="1" vertex="1">
          <mxGeometry x="140" y="50" width="180" height="30" as="geometry" />
        </mxCell>
        <mxCell id="zlEkXUk78U7Huj_eDU_d-6" value="&amp;lt;&amp;lt;include&amp;gt;&amp;gt;" style="html=1;verticalAlign=bottom;labelBackgroundColor=none;endArrow=open;endFill=0;dashed=1;rounded=0;" parent="1" source="REPhJKkpd32fTbcY40Kk-23" target="REPhJKkpd32fTbcY40Kk-24" edge="1">
          <mxGeometry width="160" relative="1" as="geometry">
            <mxPoint x="288.0053963498244" y="177.79597873842556" as="sourcePoint" />
            <mxPoint x="484.1254257049118" y="218.84155241217672" as="targetPoint" />
          </mxGeometry>
        </mxCell>
        <mxCell id="zlEkXUk78U7Huj_eDU_d-7" value="&amp;lt;&amp;lt;extend&amp;gt;&amp;gt;" style="html=1;verticalAlign=bottom;labelBackgroundColor=none;endArrow=open;endFill=0;dashed=1;rounded=0;" parent="1" source="REPhJKkpd32fTbcY40Kk-26" target="REPhJKkpd32fTbcY40Kk-24" edge="1">
          <mxGeometry width="160" relative="1" as="geometry">
            <mxPoint x="492.088780068952" y="119.03394103811547" as="sourcePoint" />
            <mxPoint x="287.9072407513954" y="162.01952826286424" as="targetPoint" />
          </mxGeometry>
        </mxCell>
        <mxCell id="zlEkXUk78U7Huj_eDU_d-8" value="&amp;lt;&amp;lt;include&amp;gt;&amp;gt;" style="html=1;verticalAlign=bottom;labelBackgroundColor=none;endArrow=open;endFill=0;dashed=1;rounded=0;exitX=0.5;exitY=1;exitDx=0;exitDy=0;" parent="1" source="REPhJKkpd32fTbcY40Kk-24" target="REPhJKkpd32fTbcY40Kk-25" edge="1">
          <mxGeometry width="160" relative="1" as="geometry">
            <mxPoint x="288.0053963498244" y="177.79597873842556" as="sourcePoint" />
            <mxPoint x="484.1254257049118" y="218.84155241217672" as="targetPoint" />
          </mxGeometry>
        </mxCell>
        <mxCell id="zlEkXUk78U7Huj_eDU_d-9" value="&amp;lt;&amp;lt;include&amp;gt;&amp;gt;" style="html=1;verticalAlign=bottom;labelBackgroundColor=none;endArrow=open;endFill=0;dashed=1;rounded=0;exitX=1;exitY=0.5;exitDx=0;exitDy=0;" parent="1" source="REPhJKkpd32fTbcY40Kk-25" target="REPhJKkpd32fTbcY40Kk-27" edge="1">
          <mxGeometry width="160" relative="1" as="geometry">
            <mxPoint x="367.5" y="430" as="sourcePoint" />
            <mxPoint x="367.5" y="580" as="targetPoint" />
          </mxGeometry>
        </mxCell>
        <mxCell id="zlEkXUk78U7Huj_eDU_d-10" value="&amp;lt;&amp;lt;include&amp;gt;&amp;gt;" style="html=1;verticalAlign=bottom;labelBackgroundColor=none;endArrow=open;endFill=0;dashed=1;rounded=0;" parent="1" source="REPhJKkpd32fTbcY40Kk-27" target="REPhJKkpd32fTbcY40Kk-28" edge="1">
          <mxGeometry width="160" relative="1" as="geometry">
            <mxPoint x="417.5" y="610" as="sourcePoint" />
            <mxPoint x="495.6968908541353" y="600.8232018676217" as="targetPoint" />
          </mxGeometry>
        </mxCell>
        <mxCell id="zlEkXUk78U7Huj_eDU_d-11" value="&amp;lt;&amp;lt;extend&amp;gt;&amp;gt;" style="html=1;verticalAlign=bottom;labelBackgroundColor=none;endArrow=open;endFill=0;dashed=1;rounded=0;" parent="1" source="REPhJKkpd32fTbcY40Kk-29" target="REPhJKkpd32fTbcY40Kk-28" edge="1">
          <mxGeometry width="160" relative="1" as="geometry">
            <mxPoint x="550.0134112179671" y="395.81059333160056" as="sourcePoint" />
            <mxPoint x="414.97236921077774" y="398.97688859459527" as="targetPoint" />
          </mxGeometry>
        </mxCell>
      </root>
    </mxGraphModel>
  </diagram>
</mxfile>
